<svg id="Gradient" height="512" viewBox="0 0 512 512" width="512" xmlns="http://www.w3.org/2000/svg" xmlns:xlink="http://www.w3.org/1999/xlink"><linearGradient id="linear-gradient" gradientUnits="userSpaceOnUse" x1="256" x2="256" y1="496" y2="16"><stop offset="0" stop-color="#12bee5"/><stop offset=".5" stop-color="#c071e9"/><stop offset="1" stop-color="#f24f5a"/></linearGradient><path d="m72 192h224a8 8 0 0 1 0 16h-224a8 8 0 0 1 0-16zm224 40h-224a8 8 0 0 0 0 16h224a8 8 0 0 0 0-16zm0 40h-224a8 8 0 0 0 0 16h224a8 8 0 0 0 0-16zm-248-160a64 64 0 1 1 64 64 64.072 64.072 0 0 1 -64-64zm16 0a48 48 0 1 0 48-48 48.053 48.053 0 0 0 -48 48zm32 16a8 8 0 0 0 8 8 8 8 0 0 0 16 0v-2.165a15.986 15.986 0 0 0 -8-29.835h8a8 8 0 0 0 0-16 8 8 0 0 0 -16 0v2.165a15.986 15.986 0 0 0 8 29.835h-8a8 8 0 0 0 -8 8zm400 344v16a8 8 0 0 1 -8 8h-464a8 8 0 0 1 -8-8v-464a8 8 0 0 1 8-8h256a8 8 0 0 1 5.657 2.343l56 56a8 8 0 0 1 2.343 5.657v355.35a39.759 39.759 0 0 1 16-3.35h8v-24a8 8 0 0 1 8-8h1.864a195.627 195.627 0 0 0 -.9-99.425 48 48 0 1 1 62.072 0 195.627 195.627 0 0 0 -.9 99.425h1.864a8 8 0 0 1 8 8v24h8a40.045 40.045 0 0 1 40 40zm-88-176a32 32 0 1 0 -32-32 32.036 32.036 0 0 0 32 32zm-13.67 104h27.34a211.575 211.575 0 0 1 -1.383-89.6 47.949 47.949 0 0 1 -24.574 0 211.575 211.575 0 0 1 -1.383 89.6zm-10.33 16v16h48v-16zm-96-344h28.687l-28.687-28.687zm40 16h-48a8 8 0 0 1 -8-8v-48h-240v448h288v-8a39.789 39.789 0 0 1 8-23.972zm152 384a24.028 24.028 0 0 0 -24-24h-96a24.028 24.028 0 0 0 -24 24v8h144zm-202.343-149.657a8 8 0 0 1 0 11.314l-19.75 19.75a80.246 80.246 0 1 1 -7.977-14.651l16.413-16.413a8 8 0 0 1 11.314 0zm-29.657 61.657a63.755 63.755 0 0 0 -2.615-18.071l-51.728 51.728a8 8 0 0 1 -11.314 0l-28-28a8 8 0 0 1 11.314-11.314l22.343 22.344 50.38-50.381a63.959 63.959 0 1 0 9.62 33.694z" fill="url(#linear-gradient)"/></svg>