<?xml version="1.0" encoding="UTF-8"?>
<svg xmlns="http://www.w3.org/2000/svg" xmlns:xlink="http://www.w3.org/1999/xlink" id="Gradient" viewBox="0 0 512 512" width="512" height="512"><defs><linearGradient id="linear-gradient" x1="256" y1="496" x2="256" y2="16" gradientUnits="userSpaceOnUse"><stop offset="0" stop-color="#12bee5"/><stop offset="0.5" stop-color="#c071e9"/><stop offset="1" stop-color="#f24f5a"/></linearGradient></defs><path d="M495.223,268.561,424.945,120.979A23.982,23.982,0,0,0,416,81.376V72a8,8,0,0,0-8-8H287.978a40.339,40.339,0,0,0-6.649-6.933l-1.335-33.386A8,8,0,0,0,272,16H240a8,8,0,0,0-7.994,7.681l-1.335,33.386A40.339,40.339,0,0,0,224.022,64H104a8,8,0,0,0-8,8v9.376a23.982,23.982,0,0,0-8.945,39.6L16.777,268.561l.007,0A7.956,7.956,0,0,0,16,272a88,88,0,0,0,176,0,7.956,7.956,0,0,0-.784-3.436l.007,0L120.945,120.979A24.055,24.055,0,0,0,126.624,112h97.4a40.358,40.358,0,0,0,4.26,4.8L216.314,416H120a8,8,0,0,0-8,8v24H64a8,8,0,0,0-8,8v32a8,8,0,0,0,8,8H448a8,8,0,0,0,8-8V456a8,8,0,0,0-8-8H400V424a8,8,0,0,0-8-8H295.686L283.718,116.8a40.358,40.358,0,0,0,4.26-4.8h97.4a24.055,24.055,0,0,0,5.679,8.979L320.777,268.561l.007,0A7.956,7.956,0,0,0,320,272a88,88,0,0,0,176,0,7.956,7.956,0,0,0-.784-3.436ZM104,96a8,8,0,1,1-8,8A8.009,8.009,0,0,1,104,96Zm0,248a72.107,72.107,0,0,1-71.559-64H175.559A72.107,72.107,0,0,1,104,344Zm67.33-80H36.67L101.5,127.869a24.016,24.016,0,0,0,5.01,0ZM216.805,96H126.624A24.119,24.119,0,0,0,112,81.376V80H216.805a40.154,40.154,0,0,0,0,16Zm30.882-64h16.626L265,49.032a39.717,39.717,0,0,0-17.99,0ZM256,64a24,24,0,1,1-24,24A24.028,24.028,0,0,1,256,64Zm23.674,352H232.326l11.6-289.868a39.987,39.987,0,0,0,24.158,0ZM440,464v16H72V464Zm-56-32v16H128V432ZM408,96a8,8,0,1,1-8,8A8.009,8.009,0,0,1,408,96Zm-22.624,0H295.2a40.154,40.154,0,0,0,0-16H400v1.376A24.119,24.119,0,0,0,385.376,96ZM405.5,127.869a24.016,24.016,0,0,0,5.01,0L475.33,264H340.67ZM408,344a72.107,72.107,0,0,1-71.559-64H479.559A72.107,72.107,0,0,1,408,344Z" style="fill:url(#linear-gradient)"/></svg>
