<svg id="Gradient" height="512" viewBox="0 0 512 512" width="512" xmlns="http://www.w3.org/2000/svg" xmlns:xlink="http://www.w3.org/1999/xlink"><linearGradient id="linear-gradient" gradientUnits="userSpaceOnUse" x1="256" x2="256" y1="496" y2="16"><stop offset="0" stop-color="#12bee5"/><stop offset=".5" stop-color="#c071e9"/><stop offset="1" stop-color="#f24f5a"/></linearGradient><path d="m488 16h-344a8 8 0 0 0 -8 8v24h-8a8 8 0 0 0 0 16h8v16h-8a8 8 0 0 0 0 16h8v16h-8a8 8 0 0 0 0 16h8v16h-112a8 8 0 0 0 -8 8v336a8 8 0 0 0 8 8h464a8 8 0 0 0 8-8v-464a8 8 0 0 0 -8-8zm-336 112a8 8 0 0 0 0-16v-16a8 8 0 0 0 0-16v-16a8 8 0 0 0 0-16v-16h24v112h-24zm104 32v96h-224v-96zm-224 320v-208h224v208zm368-264h16v224h-16zm16-32v16h-16v-16zm-3.816 272-4.184 10.459-4.184-10.459zm67.816 24h-60.184l11.551-28.878.012-.028.049-.123a7.97 7.97 0 0 0 .572-2.971v-248h8a8.009 8.009 0 0 1 8 8v56a8 8 0 0 0 16 0v-56a24.027 24.027 0 0 0 -24-24h-8v-8a8 8 0 0 0 -8-8h-8v-8a8 8 0 0 0 -16 0v8h-8a8 8 0 0 0 -8 8v272a7.97 7.97 0 0 0 .576 2.97l.049.123.012.028 11.547 28.879h-124.184v-328a8 8 0 0 0 -8-8h-72v-112h288zm-424-240h176a8 8 0 0 0 8-8v-48a8 8 0 0 0 -8-8h-176a8 8 0 0 0 -8 8v48a8 8 0 0 0 8 8zm8-48h160v32h-160zm168 96h-176a8 8 0 0 0 -8 8v160a8 8 0 0 0 8 8h176a8 8 0 0 0 8-8v-160a8 8 0 0 0 -8-8zm-64 80h-24v-24h24zm-40 0h-24v-24h24zm-40 0h-24v-24h24zm-24 16h24v24h-24zm40 0h24v24h-24zm40 0h24v24h-24zm40-8v-32h40v64h-40zm40-48h-40v-24h40zm-56 0h-24v-24h24zm-40 0h-24v-24h24zm-64-24h24v24h-24zm0 120h24v24h-24zm40 0h24v24h-24zm40 0h24v24h-24zm80 24h-40v-24h40zm24-320h168a8 8 0 0 0 8-8v-48a8 8 0 0 0 -8-8h-168a8 8 0 0 0 -8 8v48a8 8 0 0 0 8 8zm8-48h152v32h-152z" fill="url(#linear-gradient)"/></svg>