<?xml version="1.0" encoding="UTF-8"?>
<svg xmlns="http://www.w3.org/2000/svg" xmlns:xlink="http://www.w3.org/1999/xlink" id="Gradient" viewBox="0 0 512 512" width="512" height="512"><defs><linearGradient id="linear-gradient" x1="256" y1="496" x2="256" y2="16" gradientUnits="userSpaceOnUse"><stop offset="0" stop-color="#12bee5"/><stop offset="0.5" stop-color="#c071e9"/><stop offset="1" stop-color="#f24f5a"/></linearGradient></defs><path d="M24,496H488a8,8,0,0,0,8-8V456a8,8,0,0,0-8-8h-8V432h8a8,8,0,0,0,8-8V392a8,8,0,0,0-8-8H464V360a8,8,0,0,0-8-8H442.264A63.956,63.956,0,0,0,368,248.61V128a8,8,0,0,0-2.343-5.657l-104-104A8,8,0,0,0,256,16H24a8,8,0,0,0-8,8V488A8,8,0,0,0,24,496Zm200-48V432H336v16Zm16-32V400H352v16Zm112,64H240V464H352Zm0-32V432H464v16Zm128,32H368V464H480Zm0-80v16H368V400Zm-32-32v16H336V368ZM400,256a48,48,0,1,1-48,48A48.055,48.055,0,0,1,400,256ZM264,43.313,340.687,120H264ZM32,32H248v96a8,8,0,0,0,8,8h96V261.736A63.846,63.846,0,0,0,357.736,352H328a8,8,0,0,0-8,8v24H232a8,8,0,0,0-8,8v24h-8a8,8,0,0,0-8,8v32a8,8,0,0,0,8,8h8v16H32ZM56,208a8,8,0,0,1,8-8H320a8,8,0,0,1,0,16H64A8,8,0,0,1,56,208Zm0,40a8,8,0,0,1,8-8H320a8,8,0,0,1,0,16H64A8,8,0,0,1,56,248Zm0,40a8,8,0,0,1,8-8H304a8,8,0,0,1,0,16H64A8,8,0,0,1,56,288Zm248,48H64a8,8,0,0,1,0-16H304a8,8,0,0,1,0,16ZM168,376H64a8,8,0,0,1,0-16H168a8,8,0,0,1,0,16ZM56,168V72a8,8,0,0,1,16,0v60.687l18.343-18.344a8,8,0,0,1,11.314,0L112,124.687l26.343-26.344a8,8,0,0,1,11.314,0L160,108.687,180.687,88H176a8,8,0,0,1,0-16h24a8,8,0,0,1,8,8v24a8,8,0,0,1-16,0V99.313l-26.343,26.344a8,8,0,0,1-11.314,0L144,115.313l-26.343,26.344a8,8,0,0,1-11.314,0L96,131.313l-24,24V160H200a8,8,0,0,1,0,16H64A8,8,0,0,1,56,168ZM392,312h8a15.986,15.986,0,0,1-8-29.835V280a8,8,0,0,1,16,0,8,8,0,0,1,0,16h-8a15.986,15.986,0,0,1,8,29.835V328a8,8,0,0,1-16,0,8,8,0,0,1,0-16Z" style="fill:url(#linear-gradient)"/></svg>
