<svg id="Gradient" height="512" viewBox="0 0 512 512" width="512" xmlns="http://www.w3.org/2000/svg" xmlns:xlink="http://www.w3.org/1999/xlink"><linearGradient id="linear-gradient" gradientUnits="userSpaceOnUse" x1="252" x2="252" y1="496" y2="16"><stop offset="0" stop-color="#12bee5"/><stop offset=".5" stop-color="#c071e9"/><stop offset="1" stop-color="#f24f5a"/></linearGradient><path d="m24 376h200v24a8 8 0 0 0 8 8h3.433l-80.839 74.1a8 8 0 1 0 10.812 11.8l90.594-83.047 90.594 83.047a8 8 0 1 0 10.812-11.8l-80.839-74.1h3.433a8 8 0 0 0 8-8v-24h192a8 8 0 0 0 8-8v-344a8 8 0 0 0 -8-8h-456a8 8 0 0 0 -8 8v344a8 8 0 0 0 8 8zm96-16h-48v-96h48zm104 0h-48v-144h48zm48 32h-32v-16h32zm56-32h-48v-176h48zm104 0h-48v-240h48zm-400-328h440v328h-24v-248a8 8 0 0 0 -8-8h-64a8 8 0 0 0 -8 8v248h-24v-184a8 8 0 0 0 -8-8h-64a8 8 0 0 0 -8 8v184h-24v-152a8 8 0 0 0 -8-8h-64a8 8 0 0 0 -8 8v152h-24v-104a8 8 0 0 0 -8-8h-64a8 8 0 0 0 -8 8v104h-24zm25.53 188.706a8 8 0 0 1 1.764-11.176l88-64a8.006 8.006 0 0 1 4.706-1.53h69.65l99.556-64h-25.206a8 8 0 0 1 0-16h40a8 8 0 0 1 8 8v40a8 8 0 0 1 -16 0v-17.347l-99.674 64.076a8 8 0 0 1 -4.326 1.271h-69.4l-85.9 62.47a8 8 0 0 1 -11.176-1.764z" fill="url(#linear-gradient)"/></svg>