<?xml version="1.0" encoding="UTF-8"?>
<svg xmlns="http://www.w3.org/2000/svg" xmlns:xlink="http://www.w3.org/1999/xlink" id="Gradient" viewBox="0 0 512 512" width="512" height="512"><defs><linearGradient id="linear-gradient" x1="256" y1="496" x2="256" y2="16" gradientUnits="userSpaceOnUse"><stop offset="0" stop-color="#12bee5"/><stop offset="0.5" stop-color="#c071e9"/><stop offset="1" stop-color="#f24f5a"/></linearGradient></defs><path d="M264,248h-8a15.986,15.986,0,0,1,8,29.835V280a8,8,0,0,1-16,0,8,8,0,0,1,0-16h8a15.986,15.986,0,0,1-8-29.835V232a8,8,0,0,1,16,0,8,8,0,0,1,0,16ZM496,488a8,8,0,0,1-8,8H24a8,8,0,0,1-8-8V24a8,8,0,0,1,16,0V472.792l87.387-60.079A207.575,207.575,0,0,1,48,256C48,141.309,141.309,48,256,48A207.947,207.947,0,0,1,382.879,91.186l-6.724-33.617a8,8,0,0,1,2.188-7.226l32-32A8,8,0,0,1,416,16h32a8,8,0,0,1,8,8V39.355l27-21.6A8,8,0,0,1,494.247,29l-21.6,27H488a8,8,0,0,1,8,8V96a8,8,0,0,1-2.343,5.657l-32,32a8,8,0,0,1-7.226,2.188l-33.615-6.723a208.048,208.048,0,0,1,42.36,108.388l19.167-19.167a8,8,0,0,1,11.314,11.314l-29.7,29.7C462.156,372.505,369.569,464,256,464a206.894,206.894,0,0,1-123.6-40.815L49.757,480H488A8,8,0,0,1,496,488ZM447.821,264H415.8c-4.183,84.522-74.258,152-159.8,152a159.369,159.369,0,0,1-49.969-8H154.485l-8.08,5.555A190.916,190.916,0,0,0,256,448C359.188,448,443.611,366.172,447.821,264ZM368,256a112.055,112.055,0,0,1-2.4,23.089l28.746-28.746a7.994,7.994,0,0,1,5.436-2.332,142.214,142.214,0,0,0-23.621-71.4L366.247,189l0,0a7.92,7.92,0,0,1-.588.661l-11.819,11.819A111.478,111.478,0,0,1,368,256ZM267.8,399.514A144.231,144.231,0,0,0,399.514,267.8ZM352,256a95.6,95.6,0,0,0-10-42.684l-24.341,24.341c-.084.084-.176.158-.263.239A64.009,64.009,0,1,1,274.1,194.612c.081-.09.157-.183.243-.269l24.349-24.349a96.03,96.03,0,1,0,9.416,166.584l28.447-28.446A95.417,95.417,0,0,0,352,256Zm-80-24V210.742A47.952,47.952,0,1,0,301.265,240H280A8,8,0,0,1,272,232Zm36.687-8,16-16L304,187.314l-16,16V224Zm40-40L328,163.313,315.314,176,336,196.686Zm-13.3-48.156A142.754,142.754,0,0,0,256,112c-79.4,0-144,64.6-144,144,0,62.828,40.449,116.378,96.67,136h44.017l26.4-26.4a112,112,0,1,1,31.432-207.432l11.821-11.822a8.1,8.1,0,0,1,.661-.588v0Zm71.87,1.889L386.6,163.552A158.128,158.128,0,0,1,415.8,248h32.03A192.044,192.044,0,0,0,407.259,137.733Zm19.062-23.827,27.05,5.41L480,92.687V72H459.845ZM392.685,58.629l5.409,27.051L440,52.155V32H419.313Zm-52.708,94.034,19.36,19.36,77.438-96.8ZM133.031,403.333l14.437-9.925A8,8,0,0,1,152,392h19.811A160.036,160.036,0,0,1,96,256c0-88.224,71.776-160,160-160a158.665,158.665,0,0,1,92.447,29.4l25.814-20.651A191.943,191.943,0,0,0,256,64C150.131,64,64,150.131,64,256A191.673,191.673,0,0,0,133.031,403.333Z" style="fill:url(#linear-gradient)"/></svg>
