<?xml version="1.0" encoding="UTF-8"?>
<svg xmlns="http://www.w3.org/2000/svg" xmlns:xlink="http://www.w3.org/1999/xlink" id="Gradient" viewBox="0 0 512 512" width="512" height="512"><defs><linearGradient id="linear-gradient" x1="255.273" y1="504" x2="255.273" y2="8.002" gradientUnits="userSpaceOnUse"><stop offset="0" stop-color="#12bee5"/><stop offset="0.5" stop-color="#c071e9"/><stop offset="1" stop-color="#f24f5a"/></linearGradient></defs><path d="M280,280h8a15.986,15.986,0,0,1-8-29.835V248a8,8,0,0,1,16,0,8,8,0,0,1,0,16h-8a15.986,15.986,0,0,1,8,29.835V296a8,8,0,0,1-16,0,8,8,0,0,1,0-16ZM17.131,415.348a30.73,30.73,0,0,1,35.921-42.029l83.581,21.8A7.977,7.977,0,0,1,136,392V360a8,8,0,0,1,8-8h8V336h-8a8,8,0,0,1-8-8V296a8,8,0,0,1,8-8h8V272h-8a8,8,0,0,1-8-8V232a8,8,0,0,1,8-8h8V208h-8a8,8,0,0,1-8-8V168a8,8,0,0,1,8-8h88a55.676,55.676,0,0,0-9.994-31.875l-77.21,7.721c-.075.008-.15.014-.226.019q-1.825.13-3.668.13c-19.41,0-39.706-10.736-51.456-27.521L49.49,52.536a8,8,0,0,1,5.626-12.6l72-8c.09-.01.18-.019.271-.026,22.013-1.693,49.053,10.04,62.86,27.3.086.107.17.217.25.33l33.924,47.224a72.6,72.6,0,0,1,9.928,11.132A72.082,72.082,0,0,1,255.8,82.705l33.7-46.914c.08-.113.164-.223.25-.331C303.559,18.2,330.6,6.474,352.613,8.164c.091.006.181.015.271.025l72,8a8,8,0,0,1,5.626,12.6l-40,56c-11.708,16.727-32,27.46-51.412,27.46q-1.842,0-3.668-.13l-.226-.019-77.286-7.729A55.674,55.674,0,0,0,248,136.14V160h8a8,8,0,0,1,8,8v24h8a8,8,0,0,1,8,8v8.518a64,64,0,1,1,0,126.964v11.446L375.844,352,408,351.976V344a8,8,0,0,1,8-8h72a8,8,0,0,1,8,8V488a8,8,0,0,1-8,8H416a8,8,0,0,1-8-8v-9.055l-48-6.813L225.468,503.787a8,8,0,0,1-4.7-.32l-186.5-71.731A30.507,30.507,0,0,1,17.131,415.348ZM424,480h56V352H424ZM328,72.14a8,8,0,0,1-8,8H304a55.672,55.672,0,0,0-31.355,9.625l64.033,6.4c15.038,1.027,31.408-7.245,40.768-20.616l32.119-44.967-58.307-6.478c-16.553-1.22-38.427,8.259-48.887,21.2L287.442,66.084A71.855,71.855,0,0,1,304,64.14h16A8,8,0,0,1,328,72.14ZM207.208,113.525A55.684,55.684,0,0,0,176,104H160a8,8,0,0,1,0-16h16a71.917,71.917,0,0,1,16.657,1.966L177.63,69.047c-10.461-12.936-32.318-22.406-48.888-21.194L70.435,54.331,102.51,99.236c9.4,13.432,25.765,21.706,40.812,20.678ZM240,272a48,48,0,1,0,48-48A48.054,48.054,0,0,0,240,272Zm-72,64v16h51.561a26.064,26.064,0,0,1,19.335-7.247l25.1,1.329V336Zm0-128v16h77.736A64.076,64.076,0,0,1,264,212.687V208Zm-16-16h96V176H152Zm0,64h74.025a63.614,63.614,0,0,1,6.585-16H152Zm72,16H168v16h58.025A63.921,63.921,0,0,1,224,272Zm-72,48h93.736a64.437,64.437,0,0,1-13.126-16H152Zm0,64h63.061a25.889,25.889,0,0,1-3.42-16H152Zm3.328,16,59.78,15.6,36.16-14.464L246.724,400ZM31.8,408.947a14.626,14.626,0,0,0,8.213,7.855l184.2,70.845,133.6-31.435a7.99,7.99,0,0,1,2.956-.132L408,462.785V367.976s-32.645.02-32.787.013l-137.14-7.257a10.106,10.106,0,0,0-2.931,19.9l78.79,19.607a8,8,0,1,1-3.864,15.526l-32.242-8.023-59.22,23.688a7.994,7.994,0,0,1-4.99.313L49.013,388.8A14.73,14.73,0,0,0,31.8,408.947Z" style="fill:url(#linear-gradient)"/></svg>
